PathFileType	4	(X/Y/Z)	outputs\dynamic_markers.trc
DataRate	CameraRate	NumFrames	NumMarkers	Units	OrigDataRate	OrigDataStartFrame	OrigNumFrames
360.000000	360.000000	4	48	m	360.000000	239	639
Frame#	Time	C7			CLAV			LANK			LASI			LBAK			LBHD			LELB			LFHD			LFIN			LFRM			LHEE			LIC			LKNE			LMANK			LMELB			LMKNE			LPSI			LSHO			LTHI			LTIB			LTOE			LUPA			LWRA			LWRB			RANK			RASI			RBAK			RBHD			RELB			RFHD			RFIN			RFRM			RHEE			RIC			RKNE			RMANK			RMELB			RMKNE			RPSI			RSHO			RTHI			RTIB			RTOE			RUPA			RWRA			RWRB			STRN			T10			
		X1	Y1	Z1	X2	Y2	Z2	X3	Y3	Z3	X4	Y4	Z4	X5	Y5	Z5	X6	Y6	Z6	X7	Y7	Z7	X8	Y8	Z8	X9	Y9	Z9	X10	Y10	Z10	X11	Y11	Z11	X12	Y12	Z12	X13	Y13	Z13	X14	Y14	Z14	X15	Y15	Z15	X16	Y16	Z16	X17	Y17	Z17	X18	Y18	Z18	X19	Y19	Z19	X20	Y20	Z20	X21	Y21	Z21	X22	Y22	Z22	X23	Y23	Z23	X24	Y24	Z24	X25	Y25	Z25	X26	Y26	Z26	X27	Y27	Z27	X28	Y28	Z28	X29	Y29	Z29	X30	Y30	Z30	X31	Y31	Z31	X32	Y32	Z32	X33	Y33	Z33	X34	Y34	Z34	X35	Y35	Z35	X36	Y36	Z36	X37	Y37	Z37	X38	Y38	Z38	X39	Y39	Z39	X40	Y40	Z40	X41	Y41	Z41	X42	Y42	Z42	X43	Y43	Z43	X44	Y44	Z44	X45	Y45	Z45	X46	Y46	Z46	X47	Y47	Z47	X48	Y48	Z48	

240	0.6638888888888889	0.1517040878534317	1.659343004226685	0.008556204847991467	0.09327368438243866	1.573375225067139	0.1489928960800171	-0.06179063022136688	0.8489334583282471	0.5764749050140381	0.2987628579139709	1.212599396705627	0.1665501594543457	0.3221146762371063	1.487722635269165	-0.02123582363128662	0.1469842344522476	1.804581880569458	0.03082045912742615	0.4028268456459045	1.385937094688416	0.4075175523757935	0.2186572700738907	1.849635720252991	0.1449415981769562	0.0836915448307991	1.551912307739258	0.5293240547180176	0.271558940410614	1.456080317497253	0.4642117917537689	-0.01627999357879162	0.8527323603630066	0.4913260340690613	0.3915310204029083	1.243691205978394	0.1018927842378616	0.1054984927177429	1.329011201858521	0.4537217617034912	-0.1227088570594788	0.8799587488174438	0.4845902323722839	0.3567072749137878	1.319199204444885	0.3583631813526154	-0.005327966995537281	1.306163311004639	0.3728109002113342	0.3417945802211761	1.132267713546753	-0.02933843806385994	0.2864095270633698	1.66865348815918	0.1687591671943665	0.1823963820934296	1.292953252792358	0.406423419713974	0.08173392713069916	1.231598854064941	0.4932352900505066	-0.2449403256177902	0.9002293348312378	0.5853946208953857	0.3661123216152191	1.535482883453369	0.2914361953735352	0.1383433938026428	1.495071172714233	0.4549663662910461	0.1313076913356781	1.444242477416992	0.527454137802124	0.0202777236700058	0.0810277909040451	0.04585207626223564	0.0589756965637207	1.147907733917236	0.01176063623279333	0.1403138339519501	1.464206576347351	-0.1279082149267197	0.01778164133429527	1.80767035484314	0.1070737019181252	-0.2331817150115967	1.295042276382446	-0.05573068931698799	0.08358462154865265	1.849273800849915	0.225920557975769	-0.1807131171226501	1.486764669418335	0.2252020835876465	-0.2231793850660324	1.385453701019287	0.07288090884685516	0.08143077045679092	0.06833887100219727	-0.007799692451953888	0.08650171756744385	1.168884038925171	-0.0872955322265625	0.01424640789628029	0.5875765681266785	0.1344014406204224	0.1252462416887283	0.05088087171316147	0.06288134306669235	-0.1600639224052429	1.243376493453979	-0.0239318273961544	0.1419726610183716	0.5847887992858887	0.1707752346992493	0.2489890158176422	1.130535244941711	-0.08438927680253983	-0.03839264810085297	1.625563383102417	-0.006015001330524683	0.01126933377236128	0.7563954591751099	0.06247580796480179	0.001667551230639219	0.4523913562297821	0.06757532060146332	0.0634271577000618	0.06388545781373978	0.2776449024677277	-0.153116762638092	1.470604181289673	-0.04018628224730492	-0.1531427353620529	1.428830504417419	0.2033580839633942	-0.2416438609361649	1.417375922203064	0.2021210789680481	0.1247874051332474	1.379778623580933	0.142523005604744	0.280974268913269	1.306679964065552	-0.09435286372900009	
241	0.6666666666666667	0.1522909998893738	1.658973693847656	0.008688561618328094	0.09361265599727631	1.57317066192627	0.1491467356681824	-0.06228755041956902	0.8540428876876831	0.5750081539154053	0.2996091544628143	1.213292598724365	0.1674054861068726	0.3229969441890717	1.487577438354492	-0.02033292874693871	0.1473884582519531	1.804332852363586	0.03083576634526253	0.4027174413204193	1.386600017547607	0.4089938998222351	0.2188676595687866	1.849458336830139	0.1450200080871582	0.08370742201805115	1.553262948989868	0.5299099683761597	0.2713713645935059	1.457037091255188	0.4653978645801544	-0.01582475192844868	0.8580119013786316	0.4904384911060333	0.3924249708652496	1.2442786693573	0.1031296029686928	0.1059575304389	1.333636522293091	0.4512355029582977	-0.1222392693161964	0.8849290609359741	0.4826216101646423	0.3565606474876404	1.319698333740234	0.3599881529808044	-0.004541015718132257	1.310462474822998	0.369756668806076	0.3431337475776672	1.132158875465393	-0.02795029059052467	0.2866317927837372	1.668649554252625	0.1692948192358017	0.1830289214849472	1.296582937240601	0.4048423171043396	0.08199737966060638	1.236738443374634	0.4910461902618408	-0.2456329464912415	0.9049249887466431	0.5820701718330383	0.3662464618682861	1.535792589187622	0.2924602329730988	0.1383468359708786	1.496126174926758	0.4558879733085632	0.1312112808227539	1.445595383644104	0.5285565257072449	0.02057593502104282	0.08107465505599976	0.04596132040023804	0.06010988354682922	1.147642970085144	0.01233054511249065	0.1413741260766983	1.463670372962952	-0.1276345700025558	0.01802466809749603	1.807329177856445	0.1069083213806152	-0.2324002534151077	1.294375419616699	-0.0555291548371315	0.08366097509860992	1.849093437194824	0.2257697284221649	-0.1809896230697632	1.487343907356262	0.2247809618711472	-0.2228745818138123	1.385364055633545	0.07277327030897141	0.08166166394948959	0.06841413676738739	-0.00769456522539258	0.08807563781738281	1.168241500854492	-0.08665639162063599	0.01467159949243069	0.5875414609909058	0.1352140009403229	0.1253883093595505	0.05080558359622955	0.06297075003385544	-0.1595302820205688	1.242802262306213	-0.02292406558990479	0.1421232223510742	0.5846152901649475	0.1721178293228149	0.2505412399768829	1.130143404006958	-0.08311173319816589	-0.03766072168946266	1.62498939037323	-0.006429266184568405	0.0120948851108551	0.7563620805740356	0.06330133229494095	0.002142198849469423	0.452480673789978	0.06820549070835114	0.06337383389472961	0.06385955214500427	0.2776864767074585	-0.1522794663906097	1.469940781593323	-0.04072811454534531	-0.1534520983695984	1.429265022277832	0.2034064084291458	-0.2417728900909424	1.417748212814331	0.201818585395813	0.1252157986164093	1.379813194274902	0.1425417512655258	0.282216340303421	1.306431651115417	-0.09359674155712128	
242	0.6694444444444445	0.1528727263212204	1.658643245697021	0.008813806809484959	0.09392611682415009	1.572891116142273	0.1493062674999237	-0.06261132657527924	0.8588740229606628	0.5734877586364746	0.3004796802997589	1.21394419670105	0.1682500243186951	0.3238081336021423	1.487464666366577	-0.01954474300146103	0.1477767527103424	1.804038524627686	0.03079758770763874	0.4026251435279846	1.387212991714478	0.4104335308074951	0.2191109359264374	1.849299311637878	0.1450211405754089	0.08364108204841614	1.554632306098938	0.5305869579315186	0.2712952494621277	1.457927823066711	0.4664631485939026	-0.01539672538638115	0.8630489110946655	0.4895011782646179	0.3932534456253052	1.244844675064087	0.1041833311319351	0.1063488572835922	1.33811616897583	0.4488438963890076	-0.1217739433050156	0.8897291421890259	0.4806142747402191	0.3564116954803467	1.320231795310974	0.361674427986145	-0.003724297741428018	1.314493060112	0.3667755424976349	0.3446125984191895	1.13205087184906	-0.02640526369214058	0.2868808209896088	1.668623328208923	0.1698376387357712	0.18366938829422	1.300193548202515	0.4033160209655762	0.08214658498764038	1.241665601730347	0.4888617992401123	-0.2461882829666138	0.9094678163528442	0.5787870287895203	0.3663561940193176	1.536042213439941	0.29344642162323	0.138446718454361	1.497004151344299	0.4569216370582581	0.1310482770204544	1.4469153881073	0.5296905040740967	0.02085305936634541	0.08113623410463333	0.04604244977235794	0.06126543134450912	1.147395730018616	0.01301703695207834	0.1424201279878616	1.463106632232666	-0.1272425800561905	0.01825272478163242	1.807018518447876	0.106761634349823	-0.2315469980239868	1.29367995262146	-0.0552242323756218	0.0837574303150177	1.84889030456543	0.2255697995424271	-0.1812509447336197	1.487844705581665	0.22443026304245	-0.2226528525352478	1.385197639465332	0.07272043079137802	0.08189421892166138	0.06846755743026733	-0.007594180759042501	0.08932970464229584	1.167647242546082	-0.08599791675806046	0.01500840671360493	0.5875712037086487	0.1359945982694626	0.1255330741405487	0.05071578547358513	0.06306436657905579	-0.1587302684783936	1.242311477661133	-0.02227647230029106	0.142295703291893	0.5844271183013916	0.1734140962362289	0.2521398067474365	1.129723310470581	-0.081932432949543	-0.0370199978351593	1.624463558197021	-0.006800045259296894	0.01303454302251339	0.7562693953514099	0.0641205906867981	0.002542999573051929	0.4526092410087585	0.06887002289295197	0.06332339346408844	0.06382730603218079	0.2777239978313446	-0.1515967696905136	1.469256162643433	-0.04108358547091484	-0.153867319226265	1.429779529571533	0.2033138424158096	-0.2419039458036423	1.418069839477539	0.201519250869751	0.1256523728370667	1.379839181900024	0.1425634324550629	0.2835902273654938	1.306190490722656	-0.09285813570022583	
243	0.6722222222222223	0.1534091234207153	1.65831446647644	0.00892206933349371	0.09421175718307495	1.572690486907959	0.1494483798742294	-0.06289750337600708	0.8635491728782654	0.5719758272171021	0.3013741075992584	1.214554667472839	0.1690836250782013	0.324520617723465	1.48734724521637	-0.01886377856135368	0.1477903127670288	1.803896188735962	0.03015075251460075	0.4025556445121765	1.387760758399963	0.4116739928722382	0.2193269431591034	1.849126815795898	0.1450266540050507	0.08359015733003616	1.55586564540863	0.5312777161598206	0.2712812423706055	1.458781480789185	0.467502772808075	-0.01490633003413677	0.867892861366272	0.4886227548122406	0.394122838973999	1.245299816131592	0.1053573861718178	0.106833890080452	1.342391729354858	0.4464146494865417	-0.1212254837155342	0.8943203687667847	0.4785733222961426	0.356236457824707	1.320673108100891	0.3631282150745392	-0.002851006109267473	1.318418025970459	0.3638243973255157	0.3458881676197052	1.131929159164429	-0.02508234046399593	0.2871072292327881	1.668577313423157	0.1704259663820267	0.184321328997612	1.303654909133911	0.4017412662506104	0.08251678198575974	1.246397256851196	0.4864532053470612	-0.2466513216495514	0.9137891530990601	0.5755500197410583	0.3663922250270844	1.536315441131592	0.2943690419197083	0.1384987682104111	1.497820019721985	0.4578533172607422	0.1309037804603577	1.448074460029602	0.5306834578514099	0.02105522342026234	0.08121728152036667	0.04610905051231384	0.06249498575925827	1.147101759910583	0.01362795382738113	0.1434701830148697	1.462433099746704	-0.1269041746854782	0.0184779092669487	1.80666708946228	0.1065458878874779	-0.2307349145412445	1.292935967445374	-0.05485708639025688	0.08381209522485733	1.848694562911987	0.225402295589447	-0.1814557164907455	1.488266110420227	0.2241020798683167	-0.2223885357379913	1.385049104690552	0.07267752289772034	0.08207736909389496	0.0685189887881279	-0.00751980347558856	0.09084858000278473	1.167022943496704	-0.08528993278741837	0.0154364462941885	0.5875888466835022	0.1368313878774643	0.1256757378578186	0.05062880739569664	0.06317459791898727	-0.1580137461423874	1.241789221763611	-0.02161495015025139	0.1425355970859528	0.5842444896697998	0.1746878176927567	0.2537083625793457	1.129331946372986	-0.08067015558481216	-0.03633307665586472	1.623950362205505	-0.0072889793664217	0.01390205696225166	0.7562820315361023	0.06494820863008499	0.00315969530493021	0.4526762366294861	0.06945741176605225	0.0632818192243576	0.06380121409893036	0.2777420878410339	-0.1507277339696884	1.468500018119812	-0.04140347242355347	-0.1540226936340332	1.430140852928162	0.203330785036087	-0.242045059800148	1.418437361717224	0.2014139145612717	0.1260973066091537	1.379856467247009	0.142588272690773	0.2848538756370544	1.305967807769775	-0.09211253374814987	
